<?xml version="1.0" standalone="no"?>
<!DOCTYPE svg PUBLIC "-//W3C//DTD SVG 20010904//EN"
 "http://www.w3.org/TR/2001/REC-SVG-20010904/DTD/svg10.dtd">
<svg version="1.0" xmlns="http://www.w3.org/2000/svg"
 width="640.000000pt" height="1280.000000pt" viewBox="0 0 640.000000 1280.000000"
 preserveAspectRatio="xMidYMid meet">
<metadata>
Created by potrace 1.15, written by Peter Selinger 2001-2017
</metadata>
<g transform="translate(0.000000,1280.000000) scale(0.100000,-0.100000)"
fill="#000000" stroke="none">
<path d="M5483 12785 c-186 -52 -417 -251 -572 -493 -18 -28 -39 -52 -47 -52
-14 0 -74 -108 -74 -134 0 -17 -62 -148 -793 -1676 -1237 -2588 -1447 -3020
-1464 -3020 -7 0 -28 -29 -45 -65 -27 -54 -30 -68 -19 -74 15 -10 0 -44 -242
-543 -96 -198 -118 -236 -134 -232 -15 4 -31 -23 -96 -157 -42 -89 -77 -173
-77 -186 0 -46 26 -78 89 -108 34 -16 61 -32 61 -37 0 -5 -137 -228 -304 -496
l-303 -488 8 -60 c13 -89 -16 -862 -36 -990 l-5 -30 -73 12 c-96 17 -211 17
-332 -1 -165 -24 -449 -87 -471 -104 -11 -9 -100 -56 -198 -105 -269 -135
-335 -208 -344 -381 -5 -93 -3 -99 69 -185 94 -113 219 -189 375 -229 213 -54
511 -85 1059 -111 121 -6 229 -13 240 -15 11 -2 139 -9 285 -15 448 -18 1365
-145 1738 -240 230 -59 400 -129 481 -198 l34 -29 -49 -53 c-84 -90 -463 -349
-659 -451 -49 -25 -154 -72 -232 -105 -78 -32 -140 -61 -137 -65 13 -21 -186
-138 -252 -149 -52 -9 -153 -55 -261 -118 -30 -18 -59 -28 -71 -25 -23 6 -38
-1 -154 -74 -65 -40 -124 -66 -235 -102 -112 -37 -184 -68 -298 -131 -82 -45
-194 -104 -248 -132 -55 -27 -97 -52 -94 -54 3 -3 16 0 29 7 12 7 59 24 103
39 44 14 92 34 107 44 15 10 35 16 45 13 23 -5 -115 -71 -193 -91 -32 -8 -64
-22 -72 -30 -14 -13 -10 -14 34 -2 27 7 93 32 146 54 53 23 199 82 325 132
125 50 244 99 263 109 19 10 51 22 70 26 53 11 160 56 160 67 0 6 7 8 15 5 15
-6 79 17 241 89 55 24 107 44 116 44 15 0 333 127 483 193 485 214 659 300
775 387 75 55 203 184 246 246 32 46 35 58 36 121 1 149 -78 240 -307 353
-208 102 -437 171 -830 249 -653 130 -971 170 -1625 206 -550 30 -865 62
-1090 111 -114 25 -369 112 -370 127 0 15 115 80 209 119 181 73 405 137 657
187 167 33 269 69 314 111 37 35 38 66 3 102 l-27 28 24 24 c154 145 623 554
712 619 l66 48 60 172 c33 95 119 344 192 554 l132 382 61 -30 c62 -32 111
-35 143 -9 7 7 50 87 95 178 68 140 79 168 66 177 -12 9 15 71 171 393 128
264 190 381 199 378 8 -4 26 19 48 65 28 54 32 71 22 75 -11 4 97 235 410 877
1887 3874 1831 3759 1888 3867 18 36 32 70 30 76 -2 7 11 59 30 115 51 160 66
241 72 404 7 204 -21 317 -103 414 -62 74 -192 107 -301 76z m-1908 -11144
c-7 -12 -109 -51 -132 -51 -27 0 -9 10 64 35 81 28 75 27 68 16z"/>
<path d="M3150 1652 c-268 -126 -320 -151 -320 -155 0 -5 360 160 369 168 9
10 -15 3 -49 -13z"/>
<path d="M1735 1030 c-22 -11 -123 -58 -224 -105 -234 -107 -337 -166 -316
-177 11 -7 41 7 103 45 123 77 161 94 217 102 28 4 68 17 89 27 58 29 176 110
176 119 0 11 3 12 -45 -11z"/>
<path d="M1530 850 c-12 -8 -12 -10 5 -10 11 0 27 5 35 10 12 8 12 10 -5 10
-11 0 -27 -5 -35 -10z"/>
<path d="M1085 701 c-6 -5 -66 -42 -135 -81 -69 -40 -118 -70 -110 -67 67 23
115 47 178 90 40 28 75 54 78 58 7 12 0 11 -11 0z"/>
<path d="M1190 619 c0 -5 5 -7 10 -4 6 3 10 8 10 11 0 2 -4 4 -10 4 -5 0 -10
-5 -10 -11z"/>
<path d="M984 525 c-24 -18 -7 -19 26 0 16 9 19 14 9 15 -8 0 -24 -7 -35 -15z"/>
<path d="M432 263 c-17 -16 -54 -48 -82 -72 -44 -38 -100 -108 -100 -126 0
-17 22 0 37 29 10 19 56 67 103 106 109 92 107 90 88 90 -8 0 -29 -12 -46 -27z"/>
</g>
</svg>
